<?xml version="1.0" encoding="UTF-8" standalone="no"?>
<svg
   xmlns:dc="http://purl.org/dc/elements/1.1/"
   xmlns:cc="http://creativecommons.org/ns#"
   xmlns:rdf="http://www.w3.org/1999/02/22-rdf-syntax-ns#"
   xmlns:svg="http://www.w3.org/2000/svg"
   xmlns="http://www.w3.org/2000/svg"
   xmlns:sodipodi="http://sodipodi.sourceforge.net/DTD/sodipodi-0.dtd"
   xmlns:inkscape="http://www.inkscape.org/namespaces/inkscape"
   version="1.1"
   id="Layer_1"
   x="0px"
   y="0px"
   viewBox="0 0 5366.1734 3796.1574"
   enable-background="new 0 0 5000 3668.466"
   xml:space="preserve"
   sodipodi:docname="avatar.svg"
   width="458mm"
   height="324mm"
   inkscape:version="1.0 (4035a4f, 2020-05-01)"><metadata
   id="metadata29"><rdf:RDF><cc:Work
       rdf:about=""><dc:format>image/svg+xml</dc:format><dc:type
         rdf:resource="http://purl.org/dc/dcmitype/StillImage" /><dc:title></dc:title></cc:Work></rdf:RDF></metadata><defs
   id="defs27" /><sodipodi:namedview
   inkscape:document-rotation="0"
   pagecolor="#ffffff"
   bordercolor="#666666"
   borderopacity="1"
   objecttolerance="10"
   gridtolerance="10"
   guidetolerance="10"
   inkscape:pageopacity="0"
   inkscape:pageshadow="2"
   inkscape:window-width="1830"
   inkscape:window-height="1149"
   id="namedview25"
   showgrid="false"
   scale-x="3.1"
   inkscape:zoom="0.22507243"
   inkscape:cx="2225.0229"
   inkscape:cy="1614.2513"
   inkscape:window-x="416"
   inkscape:window-y="964"
   inkscape:window-maximized="0"
   inkscape:current-layer="Layer_1"
   units="mm"
   showborder="true"
   inkscape:showpageshadow="false"
   inkscape:pagecheckerboard="false" />
<g
   transform="translate(936.58741,550.93375)"
   id="g22">
	<path
   d="m 3213.162,922.399 c 123.704,122.717 105.083,135.478 128.295,135.189 48.311,-0.602 96.536,1.607 144.735,4.538 3.531,0.215 9.473,-2.031 9.838,3.414 0.45,6.705 9.657,4.434 -141.748,4.113 -3.308,-0.01 -7.679,-1.761 -9.755,1.615 -2.465,4.008 2.421,5.915 4.2,8.605 40.353,61.025 38.549,60.452 46.541,61.406 74.371,8.887 148.323,20.451 221.258,37.696 81.744,19.328 97.131,50.638 103.856,93.163 40.983,259.147 17.121,317.143 28.419,320.69 11.289,3.544 81.368,-194 381.007,-258.777 160.761,-34.754 348.28,-7.486 511.875,97.148 271.255,173.493 414.035,475.256 337.998,891.132 -65.277,357.031 -332.823,597.815 -662.027,697.718 -275.24,83.527 -650.718,86.525 -911.72,-66.088 -25.915,-15.153 -3.521,18.154 -163.302,186.189 -443.546,466.459 -1063.779,491 -1199.822,516.011 -106.84,19.642 -506.417,19.048 -740.606,-26.127 C 792.958,3531.801 361.56,3180.338 163.313,2712.045 -18.796,2281.875 -25.13,1785.929 31.49,1326.581 c 12.717,-103.168 449.541,-139.893 563.095,-137.752 6.897,0.13 9.928,-2.53 8.998,-9.296 -9.303,-67.648 6.357,-80.077 -10.902,-80.733 -340.246,-12.933 -465.757,24.346 -466.727,8.671 -0.403,-6.505 6.541,-5.356 11.142,-5.853 170.909,-18.447 243.52,-15.94 255.623,-16.21 10.442,-0.233 20.872,-1.923 31.297,-1.825 53.014,0.5 106.059,0.666 158.938,5.009 13.388,1.099 19.252,-1.243 18.445,-16.945 -4.662,-90.78 18.047,-111.634 -5.333,-114.849 -380.337,-52.296 -375.083,-36.781 -375.167,-48.175 -0.053,-7.215 -6.93,-6.419 130.187,5.25 250.219,21.294 257.494,50.276 260.335,20.818 2.65,-27.49 8.713,-54.329 15.071,-81.122 34.696,-146.219 84.609,-182.609 73.874,-194.51 -49.167,-54.5 -117,-224.692 -104.131,-402.552 9.036,-124.877 79.002,-195.675 188.94,-207.138 78.924,-8.229 305.405,-8.928 443.577,57.347 13.02,6.245 263.295,-125.889 619.838,-104.339 347.495,21.003 554.384,154.137 564.655,154.651 23.739,1.189 5.851,-23.083 194.24,-57.048 110.31,-19.888 241.775,-29.438 326.804,44.405 86.7,75.294 59.14,176.271 19.806,280.588 -71.468,189.538 -111.592,201.791 -98.586,228.015 24.202,48.796 17.772,52.907 35.76,59.481 106.416,38.887 199.3,99.821 283.698,174.529 1.316,1.165 2.798,2.223 3.84,3.605 25.321,33.544 50.431,16.303 139.432,19.002 69.055,2.094 114.989,6.978 115.253,6.997 3.507,0.254 8.117,-0.581 7.87,4.319 -0.566,11.306 -93.706,-5.915 -228.2,1.478 z m -1420.181,2711.17 c 351.698,6.674 789.473,-73.808 1118.519,-272.141 351.976,-212.155 535.736,-497.22 663.719,-878.516 58.177,-173.326 103.452,-382.416 122.802,-570.179 30.028,-291.378 7.731,-492.57 3.48,-603.047 -0.287,-7.471 -2.176,-11.203 -10.046,-4.793 -54.644,44.512 -140.995,71.051 -210.349,90.29 -12.214,3.388 -11.528,9.333 -10.673,17.786 21.042,208.046 -76.195,204.795 -86.591,220.321 -37.438,55.914 -69.878,17.611 -87.062,25.175 -100.649,44.304 -217.21,-14.2 -305.13,-82.201 -48.755,-37.709 -101.047,-70.192 -151.616,-105.213 -10.292,-7.128 -16.849,-6.483 -24.811,5.002 -53.978,77.861 -170.707,173.449 -343.025,233.821 -168.375,58.99 -347.103,67.699 -513.919,66.037 -220.326,-2.196 -217.487,-5.932 -207.974,13.131 67.324,134.91 78.061,463.515 -76.317,449.069 -4.181,-0.391 -7.224,1.127 -10.455,4.065 -20.634,18.766 -45.712,27.476 -72.361,21.147 -56.335,-13.379 -37.711,26.091 -139.103,-5.481 -73.255,-22.811 -137.106,-62.633 -193.228,-114.688 -50.618,-46.95 -87.295,-104.309 -120.687,-164.049 -15.05,-26.926 -117.341,-218.667 -172.62,-242.638 -115.236,-49.974 -211.904,-122.561 -276.46,-232.947 -2.998,-5.126 -6.537,-8.482 -13.205,-8.998 -134.905,-10.443 -325.78,-21.275 -469.735,-66.222 -52.359,-16.348 -107.133,-26.474 -154.384,-56.958 -13.393,-8.641 -5.213,7.549 -10.712,87.488 -33.333,484.54 2.26,1031.591 259.647,1443.92 218.931,350.724 583.801,606.808 992.111,691.974 209.878,43.774 390.202,36.758 500.185,38.845 z m 612.442,-2558.241 c 0.041,-5.597 3.996,-6.026 6.363,-6.853 82.4,-28.82 166.21,-52.992 250.674,-74.874 233.073,-60.383 248.795,-39.349 243.298,-63.514 -21.25,-93.408 -15.821,-94.597 -79.254,-281.262 -8.486,-24.973 -0.692,-25.463 43.691,-117.045 55.596,-114.718 128.351,-257.335 66.001,-338.337 -73.158,-95.044 -223.399,-75.025 -341.728,-53.026 -91.443,17 -163.8,53.158 -190.224,43.644 -74.126,-26.689 -297.53,-137.497 -582.845,-145.271 -195.355,-5.323 -371.437,27.119 -528.377,87.934 -117.077,45.368 -48.94,-5.113 -315.347,-41.34 -86,-11.695 -204.663,-29.38 -275.59,19.48 -77.836,53.619 -79.416,155.702 -69.823,250.138 14.215,139.944 45.22,184.077 94.076,282.631 16.022,32.321 -49.05,80.786 -85.776,304.758 -0.967,5.897 -2.285,12.44 7.019,14.056 178.7,31.049 352.014,77.723 529.932,139.198 -17.559,12.953 -136.399,-57.158 -530.116,-129.416 -11.663,-2.141 -12.034,-5.648 -17.16,101.165 -2.456,51.193 -11.923,-12.615 569.383,105.304 3.19,0.647 8.383,-0.65 7.695,4.501 -1.441,10.795 -81.724,-19.328 -363.795,-54.374 -66.718,-8.289 -133.79,-13.702 -200.653,-20.879 -11.064,-1.188 -13.469,2.727 -12.939,12.772 7.082,134.149 3.073,132.906 20.657,131.383 130.799,-11.331 272.142,-15.923 324.629,-15.383 216.442,2.228 209.67,-4.201 209.561,3.344 -0.075,5.223 -5.72,4.272 -20.223,4.22 -129.464,-0.464 -356.374,6.405 -505.187,18.095 -13.735,1.079 -20.671,0.332 -17.297,18.95 28.021,154.591 74.253,268.561 221.226,370.577 124.446,86.38 265.752,119.186 414.148,127.706 81.464,4.677 222.552,-6.443 263.616,-14.283 314.174,-59.982 651.345,36.194 989.137,-107.111 200.007,-84.851 326.49,-223.544 373.263,-437.547 1.442,-6.597 0.756,-10.609 -7.914,-10.627 -61.418,-0.126 -79.672,-14.286 -488.13,5.307 -20.352,0.976 -50.118,-21.088 366.737,-20.585 124.5,0.15 132.635,12.683 134.457,-1.189 12.882,-98.133 10.623,-98.016 0.375,-97.005 -475.454,46.916 -493.767,64.124 -495.041,52.198 -0.457,-4.281 4.852,-3.88 8.239,-4.412 109.998,-17.276 361.177,-46.126 369.414,-47.035 122.399,-13.505 125.682,-6.951 125.884,-19.279 0.616,-37.763 -1.777,-75.281 -7.836,-112.588 -1.121,-6.899 -3.535,-8.303 -10.416,-7.086 -317.651,56.208 -465.251,122.878 -493.804,122.96 z M 3935.12,2800.759 c 81.071,-4.717 153.316,-4.669 266.249,-41.692 198.724,-65.147 388.37,-220.293 462.89,-436.249 125.404,-363.417 -110.705,-748.149 -448.856,-677.332 -270.609,56.673 -236.95,294.89 -365.449,378.483 -37.081,24.123 -76.86,33.436 -118.883,17.588 -25.522,-9.625 -9.454,-7.548 -46.229,164.359 -16.524,77.242 -49.299,204.259 -84.324,307.991 -68.1,201.687 -92.484,202.295 -71.404,209.114 191.296,61.879 241.241,68.077 406.006,77.738 z m 999.72,-954.454 c -80.154,-251.08 -316.518,-464.734 -622.341,-488.396 -222.659,-17.228 -452.753,84.895 -558.132,283.012 -15.057,28.308 -0.466,74.074 -15.542,215.592 -15.566,146.128 -22.459,144.943 -8.372,152.872 39.978,22.5 82.791,5.053 116.308,-24.424 56.979,-50.112 75.35,-143.037 120.468,-207.912 107.102,-154.003 287.518,-199.194 422.24,-159.727 332.351,97.363 447.527,554.309 218.962,879.346 -241.625,343.608 -721.878,403.059 -1088.661,250.967 -25.141,-10.425 -4.888,14.685 -106.38,171.147 -9.409,14.505 5.015,13.849 59.768,37.204 497.318,212.137 1194.212,47.578 1414.771,-439.104 82.49,-182.023 109.975,-473.032 46.911,-670.577 z M 2960.146,1085.469 c -8.865,0.522 -9.061,5.147 -9.631,11.998 -8.482,102.07 -15.049,98.328 -0.043,99.357 91.783,6.289 317.869,23.36 435.932,54.854 5.572,1.486 15.32,0.235 14,7.582 -1.825,10.163 -21.36,-1.93 -98.622,-12.299 -232.961,-31.266 -224.705,-25.51 -349.36,-39.979 -11.861,-1.377 -15.78,3.073 -17.909,13.873 -14.686,74.506 -42.212,144.002 -84.54,207.12 -7.222,10.77 -2.231,13.642 5.208,16.61 114.881,45.824 220.169,207.829 397.745,197.717 57.676,-3.285 47.393,-36.519 62.521,-33.186 15.821,3.486 -3.364,25.215 18.106,25.576 26.492,0.446 39.381,-17.62 31.721,-45.085 -1.622,-5.817 -7.519,-13.472 1.127,-17.375 8.416,-3.799 11.457,5.734 16.179,10.269 7.842,7.534 0.814,29.428 22.886,10.259 40.085,-34.814 45.65,-82.943 45.855,-130.779 0.223,-51.79 -21.677,-231.686 -130.1,-377.846 -8.727,-11.764 -17.924,-15.849 -31.73,-15.269 -367.837,15.428 39.952,-5.134 -329.345,16.603 z m -1921.294,679.349 c 88.592,94.332 124.76,216.831 206.911,312.045 65.865,76.339 145.958,132.859 243.968,159.543 30.223,8.229 63.194,7.025 83.144,-26.247 3.476,-5.798 9.191,-5.001 14.052,-2.99 18.053,7.468 -34.013,44.653 44.875,25.965 22.242,-5.269 35.22,-29.793 26.313,-50.767 -2.024,-4.766 -3.87,-9.245 1.795,-12.5 5.565,-3.197 9.932,-1.473 13.253,3.926 16.828,27.349 1.53,43.361 16.971,36.7 98.505,-42.494 80.018,-174.576 64.455,-285.948 -6.357,-45.493 -21.421,-88.965 -32.319,-133.407 -2.646,-10.791 -7.612,-13.009 -17.165,-11.801 -349.434,44.183 -480.687,34.319 -666.253,-14.519 z m -429.59,-527.754 c -0.55,-24.463 4.423,-21.073 -73.496,-17.966 -226.858,9.047 -414.129,61.237 -459.638,92.731 -20.966,14.509 -19.055,35.058 4.039,45.486 198.033,89.418 371.396,91.797 580.693,111.858 26.57,2.547 -26.318,-33.571 -46.702,-192.347 -1.441,-11.228 -4.507,-16.912 -17.843,-15.116 -39,5.252 -78.25,8.634 -117.273,13.733 -263.32,34.403 -274.525,49.144 -276.445,37.864 -0.626,-3.677 1.491,-5.506 5.194,-6.061 8.401,-1.259 35.427,-11.373 198.676,-34.77 198.566,-28.459 208.275,-14.415 202.795,-35.412 z m 2688.731,-180.072 c -3.679,-9.341 -63.327,-84.969 -111.359,-128.211 -10.496,-9.449 -57.138,-3.33 -130.964,3.799 -121.116,11.696 -113.218,12.769 -111.631,23.845 17.405,121.493 -8.307,121.743 25.953,118.582 117.047,-10.801 171.804,-11.8 328.001,-18.015 z m 120.778,115.465 c -33.953,-5.173 22.413,29.248 45.473,190.134 1.756,12.251 6.153,11.881 15.227,9.091 82.803,-25.467 257.116,-81.215 192.937,-138.129 -26.064,-23.112 -61.709,-31.854 -253.637,-61.096 z M 2948.867,935.849 c 34.731,-3.013 32.611,-9.063 205.844,-21.563 3.229,-0.233 7.91,2.022 9.345,-2.15 5.869,-17.067 -196.837,-113.227 -254.644,-147.594 -2.443,-1.453 -5.509,-4.517 -7.991,-1.734 -2.608,2.924 0.124,6.568 1.203,9.853 45.729,139.26 29.853,165.896 46.243,163.188 z"
   id="path10" />
	<path
   d="m 1762.489,1002.971 c -5.966,1.824 -6.853,4.41 -6.886,10.122 -0.242,40.763 3.179,81.598 -1.999,122.287 -0.244,1.92 0.267,4.75 1.552,5.93 33.977,31.206 48.509,73.97 67.661,113.921 6.438,13.429 9.744,28.093 11.656,42.826 0.749,5.774 4.338,14.322 -4.987,16.701 -16.63,4.243 -12.437,-36.005 -68.066,-130.864 -10.704,-18.253 -23.895,-18.848 -36.803,-1.961 -18.524,24.235 -48.869,119.855 -55.636,143.757 -2.454,8.67 -4.639,18.655 -16.787,14.776 -10.647,-3.4 -10.346,-11.818 -7.396,-21.579 11.195,-37.041 50.149,-151.299 81.635,-173.997 9.01,-6.495 -3.573,-31.902 5.935,-132.281 1.673,-17.665 -102.968,-42.158 -89.914,-97.656 14.132,-60.08 103.476,-58.945 162.352,-42.749 73.441,20.204 34.821,107.18 -42.317,130.767 z m -33.947,-115.197 c -26.275,-0.772 -52.923,5.072 -57.736,30.824 -4.104,21.962 13.418,26.853 68.975,58.199 2.974,1.678 5.552,1.714 8.5,-0.347 16.507,-11.534 33.581,-22.311 49.578,-34.506 43.604,-33.24 -18.517,-55.708 -69.317,-54.17 z"
   id="path12" />
	<path
   d="m 1236.848,966.861 c -63.778,0.209 -121.395,-55.916 -124.089,-120.992 -1.09,-26.33 -1.562,-36.196 12.624,-37.401 8.72,-0.741 14.365,1.897 16.163,11.167 10.913,56.263 36.19,107.005 93.642,110.664 59.748,3.805 92.837,-60.206 104.303,-116.236 1.306,-6.382 2.806,-12.967 10.827,-12.07 7.32,0.819 7.403,7.316 7.48,13.295 1.244,96.144 -59.056,151.37 -120.95,151.573 z"
   id="path14" />
	<path
   d="m 2171.914,819.496 c 1.009,-13.204 -0.308,-23.782 12.052,-26.268 24.877,-5.003 18.655,17.757 47.649,79.435 29.124,61.955 101.265,44.917 131.411,-6.685 25.018,-42.824 22.085,-77.933 36.633,-78.223 9.159,-0.183 10.112,7.056 11.516,13.303 19.317,85.917 -119.979,217.363 -212.932,93.488 -17.275,-23.024 -25.255,-46.582 -26.329,-75.05 z"
   id="path16" />
	<path
   d="m 916.147,173.711 c 44.573,7.697 124.238,42.607 146.728,75.761 9.88,14.566 -6.974,36.166 -39.541,9.41 -77.158,-63.39 -119.188,-56.651 -115.759,-77.357 0.771,-4.662 3.664,-7.899 8.572,-7.814 z"
   id="path18" />
	<path
   d="m 2537.769,296.018 c 31.26,-23.334 64.544,-43.129 102.032,-55.007 5.294,-1.677 11.663,-5.075 14.872,1.893 7.554,16.399 -33.054,18.345 -103.488,85.058 -34.614,32.786 -57.073,0.643 -13.416,-31.944 z"
   id="path20" />
</g>
</svg>
