<?xml version="1.0" encoding="utf-8"?>
<svg version="1.1" id="Layer_1" xmlns="http://www.w3.org/2000/svg" xmlns:xlink="http://www.w3.org/1999/xlink" x="0px" y="0px"
	 viewBox="0 0 5000 3668.466" enable-background="new 0 0 5000 3668.466" xml:space="preserve">
<g>
	<path d="M3213.162,922.399c123.704,122.717,105.083,135.478,128.295,135.189c48.311-0.602,96.536,1.607,144.735,4.538
		c3.531,0.215,9.473-2.031,9.838,3.414c0.45,6.705,9.657,4.434-141.748,4.113c-3.308-0.007-7.679-1.761-9.755,1.615
		c-2.465,4.008,2.421,5.915,4.2,8.605c40.353,61.025,38.549,60.452,46.541,61.406c74.371,8.887,148.323,20.451,221.258,37.696
		c81.744,19.328,97.131,50.638,103.856,93.163c40.983,259.147,17.121,317.143,28.419,320.69
		c11.289,3.544,81.368-194,381.007-258.777c160.761-34.754,348.28-7.486,511.875,97.148
		c271.255,173.493,414.035,475.256,337.998,891.132c-65.277,357.031-332.823,597.815-662.027,697.718
		c-275.24,83.527-650.718,86.525-911.72-66.088c-25.915-15.153-3.521,18.154-163.302,186.189
		c-443.546,466.459-1063.779,491-1199.822,516.011c-106.84,19.642-506.417,19.048-740.606-26.127
		c-509.246-98.233-940.644-449.696-1138.891-917.989C-18.796,2281.875-25.13,1785.929,31.49,1326.581
		c12.717-103.168,449.541-139.893,563.095-137.752c6.897,0.13,9.928-2.53,8.998-9.296c-9.303-67.648,6.357-80.077-10.902-80.733
		c-340.246-12.933-465.757,24.346-466.727,8.671c-0.403-6.505,6.541-5.356,11.142-5.853c170.909-18.447,243.52-15.94,255.623-16.21
		c10.442-0.233,20.872-1.923,31.297-1.825c53.014,0.5,106.059,0.666,158.938,5.009c13.388,1.099,19.252-1.243,18.445-16.945
		c-4.662-90.78,18.047-111.634-5.333-114.849c-380.337-52.296-375.083-36.781-375.167-48.175c-0.053-7.215-6.93-6.419,130.187,5.25
		c250.219,21.294,257.494,50.276,260.335,20.818c2.65-27.49,8.713-54.329,15.071-81.122
		c34.696-146.219,84.609-182.609,73.874-194.51c-49.167-54.5-117-224.692-104.131-402.552
		c9.036-124.877,79.002-195.675,188.94-207.138c78.924-8.229,305.405-8.928,443.577,57.347
		c13.02,6.245,263.295-125.889,619.838-104.339c347.495,21.003,554.384,154.137,564.655,154.651
		c23.739,1.189,5.851-23.083,194.24-57.048c110.31-19.888,241.775-29.438,326.804,44.405c86.7,75.294,59.14,176.271,19.806,280.588
		c-71.468,189.538-111.592,201.791-98.586,228.015c24.202,48.796,17.772,52.907,35.76,59.481
		c106.416,38.887,199.3,99.821,283.698,174.529c1.316,1.165,2.798,2.223,3.84,3.605c25.321,33.544,50.431,16.303,139.432,19.002
		c69.055,2.094,114.989,6.978,115.253,6.997c3.507,0.254,8.117-0.581,7.87,4.319
		C3440.796,932.227,3347.656,915.006,3213.162,922.399z M1792.981,3633.569c351.698,6.674,789.473-73.808,1118.519-272.141
		c351.976-212.155,535.736-497.22,663.719-878.516c58.177-173.326,103.452-382.416,122.802-570.179
		c30.028-291.378,7.731-492.57,3.48-603.047c-0.287-7.471-2.176-11.203-10.046-4.793c-54.644,44.512-140.995,71.051-210.349,90.29
		c-12.214,3.388-11.528,9.333-10.673,17.786c21.042,208.046-76.195,204.795-86.591,220.321
		c-37.438,55.914-69.878,17.611-87.062,25.175c-100.649,44.304-217.21-14.2-305.13-82.201
		c-48.755-37.709-101.047-70.192-151.616-105.213c-10.292-7.128-16.849-6.483-24.811,5.002
		c-53.978,77.861-170.707,173.449-343.025,233.821c-168.375,58.99-347.103,67.699-513.919,66.037
		c-220.326-2.196-217.487-5.932-207.974,13.131c67.324,134.91,78.061,463.515-76.317,449.069c-4.181-0.391-7.224,1.127-10.455,4.065
		c-20.634,18.766-45.712,27.476-72.361,21.147c-56.335-13.379-37.711,26.091-139.103-5.481
		c-73.255-22.811-137.106-62.633-193.228-114.688c-50.618-46.95-87.295-104.309-120.687-164.049
		c-15.05-26.926-117.341-218.667-172.62-242.638c-115.236-49.974-211.904-122.561-276.46-232.947
		c-2.998-5.126-6.537-8.482-13.205-8.998c-134.905-10.443-325.78-21.275-469.735-66.222
		c-52.359-16.348-107.133-26.474-154.384-56.958c-13.393-8.641-5.213,7.549-10.712,87.488
		c-33.333,484.54,2.26,1031.591,259.647,1443.92c218.931,350.724,583.801,606.808,992.111,691.974
		C1502.674,3638.498,1682.998,3631.482,1792.981,3633.569z M2405.423,1075.328c0.041-5.597,3.996-6.026,6.363-6.853
		c82.4-28.82,166.21-52.992,250.674-74.874c233.073-60.383,248.795-39.349,243.298-63.514
		c-21.25-93.408-15.821-94.597-79.254-281.262c-8.486-24.973-0.692-25.463,43.691-117.045
		c55.596-114.718,128.351-257.335,66.001-338.337c-73.158-95.044-223.399-75.025-341.728-53.026
		c-91.443,17-163.8,53.158-190.224,43.644c-74.126-26.689-297.53-137.497-582.845-145.271
		c-195.355-5.323-371.437,27.119-528.377,87.934c-117.077,45.368-48.94-5.113-315.347-41.34c-86-11.695-204.663-29.38-275.59,19.48
		c-77.836,53.619-79.416,155.702-69.823,250.138c14.215,139.944,45.22,184.077,94.076,282.631
		c16.022,32.321-49.05,80.786-85.776,304.758c-0.967,5.897-2.285,12.44,7.019,14.056c178.7,31.049,352.014,77.723,529.932,139.198
		c-17.559,12.953-136.399-57.158-530.116-129.416c-11.663-2.141-12.034-5.648-17.16,101.165
		c-2.456,51.193-11.923-12.615,569.383,105.304c3.19,0.647,8.383-0.65,7.695,4.501c-1.441,10.795-81.724-19.328-363.795-54.374
		c-66.718-8.289-133.79-13.702-200.653-20.879c-11.064-1.188-13.469,2.727-12.939,12.772
		c7.082,134.149,3.073,132.906,20.657,131.383c130.799-11.331,272.142-15.923,324.629-15.383
		c216.442,2.228,209.67-4.201,209.561,3.344c-0.075,5.223-5.72,4.272-20.223,4.22c-129.464-0.464-356.374,6.405-505.187,18.095
		c-13.735,1.079-20.671,0.332-17.297,18.95c28.021,154.591,74.253,268.561,221.226,370.577
		c124.446,86.38,265.752,119.186,414.148,127.706c81.464,4.677,222.552-6.443,263.616-14.283
		c314.174-59.982,651.345,36.194,989.137-107.111c200.007-84.851,326.49-223.544,373.263-437.547
		c1.442-6.597,0.756-10.609-7.914-10.627c-61.418-0.126-79.672-14.286-488.13,5.307c-20.352,0.976-50.118-21.088,366.737-20.585
		c124.5,0.15,132.635,12.683,134.457-1.189c12.882-98.133,10.623-98.016,0.375-97.005
		c-475.454,46.916-493.767,64.124-495.041,52.198c-0.457-4.281,4.852-3.88,8.239-4.412
		c109.998-17.276,361.177-46.126,369.414-47.035c122.399-13.505,125.682-6.951,125.884-19.279
		c0.616-37.763-1.777-75.281-7.836-112.588c-1.121-6.899-3.535-8.303-10.416-7.086
		C2581.576,1008.576,2433.976,1075.246,2405.423,1075.328z M3935.12,2800.759c81.071-4.717,153.316-4.669,266.249-41.692
		c198.724-65.147,388.37-220.293,462.89-436.249c125.404-363.417-110.705-748.149-448.856-677.332
		c-270.609,56.673-236.95,294.89-365.449,378.483c-37.081,24.123-76.86,33.436-118.883,17.588
		c-25.522-9.625-9.454-7.548-46.229,164.359c-16.524,77.242-49.299,204.259-84.324,307.991
		c-68.1,201.687-92.484,202.295-71.404,209.114C3720.41,2784.9,3770.355,2791.098,3935.12,2800.759z M4934.84,1846.305
		c-80.154-251.08-316.518-464.734-622.341-488.396c-222.659-17.228-452.753,84.895-558.132,283.012
		c-15.057,28.308-0.466,74.074-15.542,215.592c-15.566,146.128-22.459,144.943-8.372,152.872
		c39.978,22.5,82.791,5.053,116.308-24.424c56.979-50.112,75.35-143.037,120.468-207.912
		c107.102-154.003,287.518-199.194,422.24-159.727c332.351,97.363,447.527,554.309,218.962,879.346
		c-241.625,343.608-721.878,403.059-1088.661,250.967c-25.141-10.425-4.888,14.685-106.38,171.147
		c-9.409,14.505,5.015,13.849,59.768,37.204c497.318,212.137,1194.212,47.578,1414.771-439.104
		C4970.419,2334.859,4997.904,2043.85,4934.84,1846.305z M2960.146,1085.469c-8.865,0.522-9.061,5.147-9.631,11.998
		c-8.482,102.07-15.049,98.328-0.043,99.357c91.783,6.289,317.869,23.36,435.932,54.854c5.572,1.486,15.32,0.235,14,7.582
		c-1.825,10.163-21.36-1.93-98.622-12.299c-232.961-31.266-224.705-25.51-349.36-39.979c-11.861-1.377-15.78,3.073-17.909,13.873
		c-14.686,74.506-42.212,144.002-84.54,207.12c-7.222,10.77-2.231,13.642,5.208,16.61
		c114.881,45.824,220.169,207.829,397.745,197.717c57.676-3.285,47.393-36.519,62.521-33.186
		c15.821,3.486-3.364,25.215,18.106,25.576c26.492,0.446,39.381-17.62,31.721-45.085c-1.622-5.817-7.519-13.472,1.127-17.375
		c8.416-3.799,11.457,5.734,16.179,10.269c7.842,7.534,0.814,29.428,22.886,10.259c40.085-34.814,45.65-82.943,45.855-130.779
		c0.223-51.79-21.677-231.686-130.1-377.846c-8.727-11.764-17.924-15.849-31.73-15.269
		C2921.654,1084.294,3329.443,1063.732,2960.146,1085.469z M1038.852,1764.818c88.592,94.332,124.76,216.831,206.911,312.045
		c65.865,76.339,145.958,132.859,243.968,159.543c30.223,8.229,63.194,7.025,83.144-26.247c3.476-5.798,9.191-5.001,14.052-2.99
		c18.053,7.468-34.013,44.653,44.875,25.965c22.242-5.269,35.22-29.793,26.313-50.767c-2.024-4.766-3.87-9.245,1.795-12.5
		c5.565-3.197,9.932-1.473,13.253,3.926c16.828,27.349,1.53,43.361,16.971,36.7c98.505-42.494,80.018-174.576,64.455-285.948
		c-6.357-45.493-21.421-88.965-32.319-133.407c-2.646-10.791-7.612-13.009-17.165-11.801
		C1355.671,1823.52,1224.418,1813.656,1038.852,1764.818z M609.262,1237.064c-0.55-24.463,4.423-21.073-73.496-17.966
		c-226.858,9.047-414.129,61.237-459.638,92.731c-20.966,14.509-19.055,35.058,4.039,45.486
		c198.033,89.418,371.396,91.797,580.693,111.858c26.57,2.547-26.318-33.571-46.702-192.347
		c-1.441-11.228-4.507-16.912-17.843-15.116c-39,5.252-78.25,8.634-117.273,13.733c-263.32,34.403-274.525,49.144-276.445,37.864
		c-0.626-3.677,1.491-5.506,5.194-6.061c8.401-1.259,35.427-11.373,198.676-34.77
		C605.033,1244.017,614.742,1258.061,609.262,1237.064z M3297.993,1056.992c-3.679-9.341-63.327-84.969-111.359-128.211
		c-10.496-9.449-57.138-3.33-130.964,3.799c-121.116,11.696-113.218,12.769-111.631,23.845
		c17.405,121.493-8.307,121.743,25.953,118.582C3087.039,1064.206,3141.796,1063.207,3297.993,1056.992z M3418.771,1172.457
		c-33.953-5.173,22.413,29.248,45.473,190.134c1.756,12.251,6.153,11.881,15.227,9.091
		c82.803-25.467,257.116-81.215,192.937-138.129C3646.344,1210.441,3610.699,1201.699,3418.771,1172.457z M2948.867,935.849
		c34.731-3.013,32.611-9.063,205.844-21.563c3.229-0.233,7.91,2.022,9.345-2.15c5.869-17.067-196.837-113.227-254.644-147.594
		c-2.443-1.453-5.509-4.517-7.991-1.734c-2.608,2.924,0.124,6.568,1.203,9.853C2948.353,911.921,2932.477,938.557,2948.867,935.849z
		"/>
	<path d="M1762.489,1002.971c-5.966,1.824-6.853,4.41-6.886,10.122c-0.242,40.763,3.179,81.598-1.999,122.287
		c-0.244,1.92,0.267,4.75,1.552,5.93c33.977,31.206,48.509,73.97,67.661,113.921c6.438,13.429,9.744,28.093,11.656,42.826
		c0.749,5.774,4.338,14.322-4.987,16.701c-16.63,4.243-12.437-36.005-68.066-130.864c-10.704-18.253-23.895-18.848-36.803-1.961
		c-18.524,24.235-48.869,119.855-55.636,143.757c-2.454,8.67-4.639,18.655-16.787,14.776c-10.647-3.4-10.346-11.818-7.396-21.579
		c11.195-37.041,50.149-151.299,81.635-173.997c9.01-6.495-3.573-31.902,5.935-132.281c1.673-17.665-102.968-42.158-89.914-97.656
		c14.132-60.08,103.476-58.945,162.352-42.749C1878.247,892.408,1839.627,979.384,1762.489,1002.971z M1728.542,887.774
		c-26.275-0.772-52.923,5.072-57.736,30.824c-4.104,21.962,13.418,26.853,68.975,58.199c2.974,1.678,5.552,1.714,8.5-0.347
		c16.507-11.534,33.581-22.311,49.578-34.506C1841.463,908.704,1779.342,886.236,1728.542,887.774z"/>
	<path d="M1236.848,966.861c-63.778,0.209-121.395-55.916-124.089-120.992c-1.09-26.33-1.562-36.196,12.624-37.401
		c8.72-0.741,14.365,1.897,16.163,11.167c10.913,56.263,36.19,107.005,93.642,110.664c59.748,3.805,92.837-60.206,104.303-116.236
		c1.306-6.382,2.806-12.967,10.827-12.07c7.32,0.819,7.403,7.316,7.48,13.295C1359.042,911.432,1298.742,966.658,1236.848,966.861z"
		/>
	<path d="M2171.914,819.496c1.009-13.204-0.308-23.782,12.052-26.268c24.877-5.003,18.655,17.757,47.649,79.435
		c29.124,61.955,101.265,44.917,131.411-6.685c25.018-42.824,22.085-77.933,36.633-78.223c9.159-0.183,10.112,7.056,11.516,13.303
		c19.317,85.917-119.979,217.363-212.932,93.488C2180.968,871.522,2172.988,847.964,2171.914,819.496z"/>
	<path d="M916.147,173.711c44.573,7.697,124.238,42.607,146.728,75.761c9.88,14.566-6.974,36.166-39.541,9.41
		c-77.158-63.39-119.188-56.651-115.759-77.357C908.346,176.863,911.239,173.626,916.147,173.711z"/>
	<path d="M2537.769,296.018c31.26-23.334,64.544-43.129,102.032-55.007c5.294-1.677,11.663-5.075,14.872,1.893
		c7.554,16.399-33.054,18.345-103.488,85.058C2516.571,360.748,2494.112,328.605,2537.769,296.018z"/>
</g>
</svg>
